<svg xmlns="http://www.w3.org/2000/svg" viewBox="-0.400 -0.400 4.800 4.800"><line x1="0.000" y1="0.000" x2="0.500" y2="0.000" stroke="black" stroke-width="0.030" />
<line x1="0.500" y1="0.000" x2="1.000" y2="0.000" stroke="black" stroke-width="0.030" />
<line x1="1.000" y1="0.000" x2="1.500" y2="0.000" stroke="black" stroke-width="0.030" />
<line x1="1.500" y1="0.000" x2="2.000" y2="0.000" stroke="black" stroke-width="0.030" />
<line x1="2.000" y1="0.000" x2="2.500" y2="0.000" stroke="black" stroke-width="0.030" />
<line x1="2.500" y1="0.000" x2="3.000" y2="0.000" stroke="black" stroke-width="0.030" />
<line x1="3.000" y1="0.000" x2="3.500" y2="0.000" stroke="black" stroke-width="0.030" />
<line x1="3.500" y1="0.000" x2="4.000" y2="0.000" stroke="black" stroke-width="0.030" />
<line x1="0.000" y1="0.500" x2="0.500" y2="0.500" stroke="black" stroke-width="0.030" />
<line x1="0.500" y1="0.500" x2="1.000" y2="0.500" stroke="black" stroke-width="0.030" />
<line x1="1.000" y1="0.500" x2="1.500" y2="0.500" stroke="black" stroke-width="0.030" />
<line x1="1.500" y1="0.500" x2="2.000" y2="0.500" stroke="black" stroke-width="0.030" />
<line x1="2.000" y1="0.500" x2="2.500" y2="0.500" stroke="black" stroke-width="0.030" />
<line x1="2.500" y1="0.500" x2="3.000" y2="0.500" stroke="black" stroke-width="0.030" />
<line x1="3.000" y1="0.500" x2="3.500" y2="0.500" stroke="black" stroke-width="0.030" />
<line x1="3.500" y1="0.500" x2="4.000" y2="0.500" stroke="black" stroke-width="0.030" />
<line x1="0.000" y1="1.000" x2="0.500" y2="1.000" stroke="black" stroke-width="0.030" />
<line x1="0.500" y1="1.000" x2="1.000" y2="1.000" stroke="black" stroke-width="0.030" />
<line x1="1.000" y1="1.000" x2="1.500" y2="1.000" stroke="black" stroke-width="0.030" />
<line x1="1.500" y1="1.000" x2="2.000" y2="1.000" stroke="black" stroke-width="0.030" />
<line x1="2.000" y1="1.000" x2="2.500" y2="1.000" stroke="black" stroke-width="0.030" />
<line x1="2.500" y1="1.000" x2="3.000" y2="1.000" stroke="black" stroke-width="0.030" />
<line x1="3.000" y1="1.000" x2="3.500" y2="1.000" stroke="black" stroke-width="0.030" />
<line x1="3.500" y1="1.000" x2="4.000" y2="1.000" stroke="black" stroke-width="0.030" />
<line x1="0.000" y1="1.500" x2="0.500" y2="1.500" stroke="black" stroke-width="0.030" />
<line x1="0.500" y1="1.500" x2="1.000" y2="1.500" stroke="black" stroke-width="0.030" />
<line x1="1.000" y1="1.500" x2="1.500" y2="1.500" stroke="black" stroke-width="0.030" />
<line x1="1.500" y1="1.500" x2="2.000" y2="1.500" stroke="black" stroke-width="0.030" />
<line x1="2.000" y1="1.500" x2="2.500" y2="1.500" stroke="black" stroke-width="0.030" />
<line x1="2.500" y1="1.500" x2="3.000" y2="1.500" stroke="black" stroke-width="0.030" />
<line x1="3.000" y1="1.500" x2="3.500" y2="1.500" stroke="black" stroke-width="0.030" />
<line x1="3.500" y1="1.500" x2="4.000" y2="1.500" stroke="black" stroke-width="0.030" />
<line x1="0.000" y1="2.000" x2="0.500" y2="2.000" stroke="black" stroke-width="0.030" />
<line x1="0.500" y1="2.000" x2="1.000" y2="2.000" stroke="black" stroke-width="0.030" />
<line x1="1.000" y1="2.000" x2="1.500" y2="2.000" stroke="black" stroke-width="0.030" />
<line x1="1.500" y1="2.000" x2="2.000" y2="2.000" stroke="black" stroke-width="0.030" />
<line x1="2.000" y1="2.000" x2="2.500" y2="2.000" stroke="black" stroke-width="0.030" />
<line x1="2.500" y1="2.000" x2="3.000" y2="2.000" stroke="black" stroke-width="0.030" />
<line x1="3.000" y1="2.000" x2="3.500" y2="2.000" stroke="black" stroke-width="0.030" />
<line x1="3.500" y1="2.000" x2="4.000" y2="2.000" stroke="black" stroke-width="0.030" />
<line x1="0.000" y1="2.500" x2="0.500" y2="2.500" stroke="black" stroke-width="0.030" />
<line x1="0.500" y1="2.500" x2="1.000" y2="2.500" stroke="black" stroke-width="0.030" />
<line x1="1.000" y1="2.500" x2="1.500" y2="2.500" stroke="black" stroke-width="0.030" />
<line x1="1.500" y1="2.500" x2="2.000" y2="2.500" stroke="black" stroke-width="0.030" />
<line x1="2.000" y1="2.500" x2="2.500" y2="2.500" stroke="black" stroke-width="0.030" />
<line x1="2.500" y1="2.500" x2="3.000" y2="2.500" stroke="black" stroke-width="0.030" />
<line x1="3.000" y1="2.500" x2="3.500" y2="2.500" stroke="black" stroke-width="0.030" />
<line x1="3.500" y1="2.500" x2="4.000" y2="2.500" stroke="black" stroke-width="0.030" />
<line x1="0.000" y1="3.000" x2="0.500" y2="3.000" stroke="black" stroke-width="0.030" />
<line x1="0.500" y1="3.000" x2="1.000" y2="3.000" stroke="black" stroke-width="0.030" />
<line x1="1.000" y1="3.000" x2="1.500" y2="3.000" stroke="black" stroke-width="0.030" />
<line x1="1.500" y1="3.000" x2="2.000" y2="3.000" stroke="black" stroke-width="0.030" />
<line x1="2.000" y1="3.000" x2="2.500" y2="3.000" stroke="black" stroke-width="0.030" />
<line x1="2.500" y1="3.000" x2="3.000" y2="3.000" stroke="black" stroke-width="0.030" />
<line x1="3.000" y1="3.000" x2="3.500" y2="3.000" stroke="black" stroke-width="0.030" />
<line x1="3.500" y1="3.000" x2="4.000" y2="3.000" stroke="black" stroke-width="0.030" />
<line x1="0.000" y1="3.500" x2="0.500" y2="3.500" stroke="black" stroke-width="0.030" />
<line x1="0.500" y1="3.500" x2="1.000" y2="3.500" stroke="black" stroke-width="0.030" />
<line x1="1.000" y1="3.500" x2="1.500" y2="3.500" stroke="black" stroke-width="0.030" />
<line x1="1.500" y1="3.500" x2="2.000" y2="3.500" stroke="black" stroke-width="0.030" />
<line x1="2.000" y1="3.500" x2="2.500" y2="3.500" stroke="black" stroke-width="0.030" />
<line x1="2.500" y1="3.500" x2="3.000" y2="3.500" stroke="black" stroke-width="0.030" />
<line x1="3.000" y1="3.500" x2="3.500" y2="3.500" stroke="black" stroke-width="0.030" />
<line x1="3.500" y1="3.500" x2="4.000" y2="3.500" stroke="black" stroke-width="0.030" />
<line x1="0.000" y1="4.000" x2="0.500" y2="4.000" stroke="black" stroke-width="0.030" />
<line x1="0.500" y1="4.000" x2="1.000" y2="4.000" stroke="black" stroke-width="0.030" />
<line x1="1.000" y1="4.000" x2="1.500" y2="4.000" stroke="black" stroke-width="0.030" />
<line x1="1.500" y1="4.000" x2="2.000" y2="4.000" stroke="black" stroke-width="0.030" />
<line x1="2.000" y1="4.000" x2="2.500" y2="4.000" stroke="black" stroke-width="0.030" />
<line x1="2.500" y1="4.000" x2="3.000" y2="4.000" stroke="black" stroke-width="0.030" />
<line x1="3.000" y1="4.000" x2="3.500" y2="4.000" stroke="black" stroke-width="0.030" />
<line x1="3.500" y1="4.000" x2="4.000" y2="4.000" stroke="black" stroke-width="0.030" />
<line x1="0.000" y1="0.000" x2="0.000" y2="0.500" stroke="black" stroke-width="0.030" />
<line x1="0.000" y1="0.500" x2="0.000" y2="1.000" stroke="black" stroke-width="0.030" />
<line x1="0.000" y1="1.000" x2="0.000" y2="1.500" stroke="black" stroke-width="0.030" />
<line x1="0.000" y1="1.500" x2="0.000" y2="2.000" stroke="black" stroke-width="0.030" />
<line x1="0.000" y1="2.000" x2="0.000" y2="2.500" stroke="black" stroke-width="0.030" />
<line x1="0.000" y1="2.500" x2="0.000" y2="3.000" stroke="black" stroke-width="0.030" />
<line x1="0.000" y1="3.000" x2="0.000" y2="3.500" stroke="black" stroke-width="0.030" />
<line x1="0.000" y1="3.500" x2="0.000" y2="4.000" stroke="black" stroke-width="0.030" />
<line x1="0.500" y1="0.000" x2="0.500" y2="0.500" stroke="black" stroke-width="0.030" />
<line x1="0.500" y1="0.500" x2="0.500" y2="1.000" stroke="black" stroke-width="0.030" />
<line x1="0.500" y1="1.000" x2="0.500" y2="1.500" stroke="black" stroke-width="0.030" />
<line x1="0.500" y1="1.500" x2="0.500" y2="2.000" stroke="black" stroke-width="0.030" />
<line x1="0.500" y1="2.000" x2="0.500" y2="2.500" stroke="black" stroke-width="0.030" />
<line x1="0.500" y1="2.500" x2="0.500" y2="3.000" stroke="black" stroke-width="0.030" />
<line x1="0.500" y1="3.000" x2="0.500" y2="3.500" stroke="black" stroke-width="0.030" />
<line x1="0.500" y1="3.500" x2="0.500" y2="4.000" stroke="black" stroke-width="0.030" />
<line x1="1.000" y1="0.000" x2="1.000" y2="0.500" stroke="black" stroke-width="0.030" />
<line x1="1.000" y1="0.500" x2="1.000" y2="1.000" stroke="black" stroke-width="0.030" />
<line x1="1.000" y1="1.000" x2="1.000" y2="1.500" stroke="black" stroke-width="0.030" />
<line x1="1.000" y1="1.500" x2="1.000" y2="2.000" stroke="black" stroke-width="0.030" />
<line x1="1.000" y1="2.000" x2="1.000" y2="2.500" stroke="black" stroke-width="0.030" />
<line x1="1.000" y1="2.500" x2="1.000" y2="3.000" stroke="black" stroke-width="0.030" />
<line x1="1.000" y1="3.000" x2="1.000" y2="3.500" stroke="black" stroke-width="0.030" />
<line x1="1.000" y1="3.500" x2="1.000" y2="4.000" stroke="black" stroke-width="0.030" />
<line x1="1.500" y1="0.000" x2="1.500" y2="0.500" stroke="black" stroke-width="0.030" />
<line x1="1.500" y1="0.500" x2="1.500" y2="1.000" stroke="black" stroke-width="0.030" />
<line x1="1.500" y1="1.000" x2="1.500" y2="1.500" stroke="black" stroke-width="0.030" />
<line x1="1.500" y1="1.500" x2="1.500" y2="2.000" stroke="black" stroke-width="0.030" />
<line x1="1.500" y1="2.000" x2="1.500" y2="2.500" stroke="black" stroke-width="0.030" />
<line x1="1.500" y1="2.500" x2="1.500" y2="3.000" stroke="black" stroke-width="0.030" />
<line x1="1.500" y1="3.000" x2="1.500" y2="3.500" stroke="black" stroke-width="0.030" />
<line x1="1.500" y1="3.500" x2="1.500" y2="4.000" stroke="black" stroke-width="0.030" />
<line x1="2.000" y1="0.000" x2="2.000" y2="0.500" stroke="black" stroke-width="0.030" />
<line x1="2.000" y1="0.500" x2="2.000" y2="1.000" stroke="black" stroke-width="0.030" />
<line x1="2.000" y1="1.000" x2="2.000" y2="1.500" stroke="black" stroke-width="0.030" />
<line x1="2.000" y1="1.500" x2="2.000" y2="2.000" stroke="black" stroke-width="0.030" />
<line x1="2.000" y1="2.000" x2="2.000" y2="2.500" stroke="black" stroke-width="0.030" />
<line x1="2.000" y1="2.500" x2="2.000" y2="3.000" stroke="black" stroke-width="0.030" />
<line x1="2.000" y1="3.000" x2="2.000" y2="3.500" stroke="black" stroke-width="0.030" />
<line x1="2.000" y1="3.500" x2="2.000" y2="4.000" stroke="black" stroke-width="0.030" />
<line x1="2.500" y1="0.000" x2="2.500" y2="0.500" stroke="black" stroke-width="0.030" />
<line x1="2.500" y1="0.500" x2="2.500" y2="1.000" stroke="black" stroke-width="0.030" />
<line x1="2.500" y1="1.000" x2="2.500" y2="1.500" stroke="black" stroke-width="0.030" />
<line x1="2.500" y1="1.500" x2="2.500" y2="2.000" stroke="black" stroke-width="0.030" />
<line x1="2.500" y1="2.000" x2="2.500" y2="2.500" stroke="black" stroke-width="0.030" />
<line x1="2.500" y1="2.500" x2="2.500" y2="3.000" stroke="black" stroke-width="0.030" />
<line x1="2.500" y1="3.000" x2="2.500" y2="3.500" stroke="black" stroke-width="0.030" />
<line x1="2.500" y1="3.500" x2="2.500" y2="4.000" stroke="black" stroke-width="0.030" />
<line x1="3.000" y1="0.000" x2="3.000" y2="0.500" stroke="black" stroke-width="0.030" />
<line x1="3.000" y1="0.500" x2="3.000" y2="1.000" stroke="black" stroke-width="0.030" />
<line x1="3.000" y1="1.000" x2="3.000" y2="1.500" stroke="black" stroke-width="0.030" />
<line x1="3.000" y1="1.500" x2="3.000" y2="2.000" stroke="black" stroke-width="0.030" />
<line x1="3.000" y1="2.000" x2="3.000" y2="2.500" stroke="black" stroke-width="0.030" />
<line x1="3.000" y1="2.500" x2="3.000" y2="3.000" stroke="black" stroke-width="0.030" />
<line x1="3.000" y1="3.000" x2="3.000" y2="3.500" stroke="black" stroke-width="0.030" />
<line x1="3.000" y1="3.500" x2="3.000" y2="4.000" stroke="black" stroke-width="0.030" />
<line x1="3.500" y1="0.000" x2="3.500" y2="0.500" stroke="black" stroke-width="0.030" />
<line x1="3.500" y1="0.500" x2="3.500" y2="1.000" stroke="black" stroke-width="0.030" />
<line x1="3.500" y1="1.000" x2="3.500" y2="1.500" stroke="black" stroke-width="0.030" />
<line x1="3.500" y1="1.500" x2="3.500" y2="2.000" stroke="black" stroke-width="0.030" />
<line x1="3.500" y1="2.000" x2="3.500" y2="2.500" stroke="black" stroke-width="0.030" />
<line x1="3.500" y1="2.500" x2="3.500" y2="3.000" stroke="black" stroke-width="0.030" />
<line x1="3.500" y1="3.000" x2="3.500" y2="3.500" stroke="black" stroke-width="0.030" />
<line x1="3.500" y1="3.500" x2="3.500" y2="4.000" stroke="black" stroke-width="0.030" />
<line x1="4.000" y1="0.000" x2="4.000" y2="0.500" stroke="black" stroke-width="0.030" />
<line x1="4.000" y1="0.500" x2="4.000" y2="1.000" stroke="black" stroke-width="0.030" />
<line x1="4.000" y1="1.000" x2="4.000" y2="1.500" stroke="black" stroke-width="0.030" />
<line x1="4.000" y1="1.500" x2="4.000" y2="2.000" stroke="black" stroke-width="0.030" />
<line x1="4.000" y1="2.000" x2="4.000" y2="2.500" stroke="black" stroke-width="0.030" />
<line x1="4.000" y1="2.500" x2="4.000" y2="3.000" stroke="black" stroke-width="0.030" />
<line x1="4.000" y1="3.000" x2="4.000" y2="3.500" stroke="black" stroke-width="0.030" />
<line x1="4.000" y1="3.500" x2="4.000" y2="4.000" stroke="black" stroke-width="0.030" />
<line x1="4.000" y1="2.500" x2="3.714" y2="3.382" stroke="red" stroke-width="0.050" />
<line x1="3.714" y1="3.382" x2="2.964" y2="3.927" stroke="red" stroke-width="0.050" />
<line x1="2.964" y1="3.927" x2="2.036" y2="3.927" stroke="red" stroke-width="0.050" />
<line x1="2.036" y1="3.927" x2="1.286" y2="3.382" stroke="red" stroke-width="0.050" />
<line x1="1.286" y1="3.382" x2="1.000" y2="2.500" stroke="red" stroke-width="0.050" />
<line x1="1.000" y1="2.500" x2="1.286" y2="1.618" stroke="red" stroke-width="0.050" />
<line x1="1.286" y1="1.618" x2="2.036" y2="1.073" stroke="red" stroke-width="0.050" />
<line x1="2.036" y1="1.073" x2="2.964" y2="1.073" stroke="red" stroke-width="0.050" />
<line x1="2.964" y1="1.073" x2="3.714" y2="1.618" stroke="red" stroke-width="0.050" />
<circle cx="4.000" cy="2.500" r="0.080" fill="blue" />
<circle cx="3.714" cy="3.500" r="0.080" fill="blue" />
<circle cx="3.000" cy="3.927" r="0.080" fill="blue" />
<circle cx="2.000" cy="3.927" r="0.080" fill="blue" />
<circle cx="1.286" cy="3.500" r="0.080" fill="blue" />
<circle cx="1.000" cy="2.500" r="0.080" fill="blue" />
<circle cx="1.286" cy="1.500" r="0.080" fill="blue" />
<circle cx="2.000" cy="1.073" r="0.080" fill="blue" />
<circle cx="3.000" cy="1.073" r="0.080" fill="blue" />
<circle cx="3.714" cy="1.500" r="0.080" fill="blue" />
</svg>
